<?xml version="1.0" encoding="UTF-8"?>
<svg width="33.006" height="28.17" version="1.1" viewBox="0 0 33.006 28.17" xml:space="preserve" xmlns="http://www.w3.org/2000/svg"><g transform="matrix(1.3333 0 0 -1.3333 21.238 59.216)"><g transform="translate(-1.9662 37.79)"><path d="m0 0c-0.026 1.649-0.372 3.207-1.409 4.532-1.462 1.869-3.568 1.844-5.019-0.032-1.842-2.383-1.837-6.437 0.012-8.855 1.397-1.831 3.495-1.875 4.95-0.096 1.057 1.293 1.431 2.818 1.466 4.451m-6.725-5.3c-2.245 3.017-2.464 6.129-0.902 9.358 0.758 1.565 1.994 2.588 3.85 2.564 1.446-0.02 2.459-0.831 3.253-1.946 1.836-2.575 1.737-6.921-0.18-9.441-1.289-1.695-3.426-2.235-5.136-1.164-0.122 0.076-0.355 0.066-0.497 4e-3 -1.286-0.566-2.539-1.218-3.851-1.716-1.807-0.687-2.417-2.19-2.822-3.854-0.264-1.089-0.232-1.105 0.864-1.384 3.086-0.784 6.235-0.885 9.395-0.836 0.676 0.011 1.353 0.069 2.027 0.053 0.19-5e-3 0.5-0.162 0.538-0.306 0.092-0.347-0.21-0.431-0.493-0.434-1.934-0.019-3.87-0.092-5.801-0.03-2.065 0.066-4.119 0.298-6.119 0.867-1.432 0.407-1.533 0.502-1.214 1.939 0.189 0.851 0.49 1.691 0.852 2.485 0.459 1.004 1.237 1.712 2.29 2.135 1.318 0.53 2.61 1.125 3.946 1.706" fill="#fff"/></g><g transform="translate(6.0035 33.392)"><path d="m0 0c-0.494-0.419-0.851-1.054-1.677-0.754-0.9 0.326-0.684 1.087-0.741 1.773h-1.423c-0.02-0.685 0.117-1.379-0.67-1.738-0.858-0.39-1.26 0.279-1.785 0.744-0.348-0.346-0.674-0.672-1.021-1.018 0.497-0.497 1.088-0.911 0.743-1.74-0.341-0.82-1.079-0.655-1.737-0.711v-1.415c0.662-0.029 1.364 0.109 1.687-0.702 0.321-0.806-0.185-1.26-0.625-1.674 0.329-0.374 0.634-0.722 0.969-1.104 0.476 0.588 0.955 1.002 1.723 0.675 0.769-0.325 0.712-1.009 0.728-1.654h1.439c-0.048 0.702-0.072 1.362 0.715 1.679 0.781 0.315 1.222-0.202 1.693-0.671 0.355 0.352 0.673 0.665 1.027 1.014-0.481 0.474-1.03 0.887-0.723 1.687 0.319 0.83 1.025 0.74 1.689 0.748v1.436c-0.702 0-1.376-0.081-1.716 0.709-0.361 0.84 0.293 1.225 0.733 1.731-0.343 0.329-0.666 0.638-1.028 0.985m-3.134 1.833h0.056c1.389 4e-3 1.384 4e-3 1.462-1.389 9e-3 -0.149 0.086-0.397 0.172-0.416 0.143-0.032 0.358 0.04 0.476 0.144 1.044 0.919 1.04 0.924 2.04-0.077 1.004-1.003 1-0.999 0.091-2.081-0.091-0.108-0.162-0.326-0.113-0.433 0.049-0.109 0.257-0.194 0.401-0.204 1.368-0.099 1.368-0.094 1.37-1.463 1e-3 -0.038 1e-3 -0.075 1e-3 -0.113 2e-3 -1.371 1e-3 -1.365-1.365-1.478-0.137-0.012-0.334-0.116-0.376-0.226-0.044-0.114 0.059-0.29 0.11-0.434 0.018-0.048 0.077-0.081 0.117-0.121 0.923-0.915 0.919-0.768-0.028-1.717-0.292-0.293-0.593-0.576-0.875-0.878-0.261-0.28-0.502-0.282-0.762-4e-3 -0.193 0.205-0.384 0.416-0.604 0.589-0.099 0.078-0.298 0.133-0.393 0.085-0.12-0.061-0.184-0.237-0.265-0.367-0.017-0.028-5e-3 -0.074-3e-3 -0.112 0.047-1.5-0.071-1.21-1.312-1.24-0.412-0.01-0.826 3e-3 -1.239 1e-3 -0.329-1e-3 -0.479 0.158-0.471 0.487 7e-3 0.281 0.026 0.567-0.011 0.843-0.019 0.14-0.123 0.33-0.238 0.376-0.118 0.048-0.295-0.047-0.446-0.087-0.031-9e-3 -0.054-0.051-0.08-0.078-0.981-1.007-0.812-0.918-1.799 0.045-0.256 0.25-0.49 0.522-0.759 0.755-0.38 0.331-0.339 0.621 0.018 0.933 0.197 0.172 0.392 0.356 0.552 0.562 0.21 0.27 0.075 0.563-0.267 0.591-0.28 0.023-0.563 0.015-0.845 4e-3 -0.433-0.018-0.615 0.192-0.611 0.612 7e-3 0.62 5e-3 1.24 1e-3 1.859-2e-3 0.401 0.189 0.586 0.59 0.569 0.244-0.01 0.493-0.031 0.731 8e-3 0.179 0.029 0.343 0.144 0.514 0.221-0.077 0.17-0.128 0.36-0.238 0.505-0.146 0.193-0.333 0.356-0.51 0.524-0.271 0.257-0.282 0.504-0.01 0.771 0.47 0.461 0.931 0.929 1.394 1.396 0.248 0.251 0.485 0.244 0.727-8e-3 0.208-0.217 0.409-0.445 0.64-0.634 0.113-0.093 0.315-0.181 0.429-0.14 0.106 0.039 0.182 0.246 0.21 0.39 0.035 0.181 6e-3 0.374 7e-3 0.562 0 0.844 0.028 0.87 0.891 0.871h0.62z" fill="#fff"/></g><g transform="translate(5.7086 29.247)"><path d="m0 0c-2e-3 1.591-1.286 2.875-2.857 2.859-1.576-0.017-2.854-1.315-2.842-2.885 0.012-1.54 1.291-2.816 2.839-2.832 1.565-0.016 2.862 1.279 2.86 2.858z" fill="none" stroke="#fff" stroke-miterlimit="10"/></g><g transform="translate(.79942 29.254)"><path d="m0 0c4e-3 -1.154 0.931-2.092 2.061-2.085 1.132 6e-3 2.082 0.948 2.091 2.075 0.011 1.117-0.942 2.069-2.081 2.078-1.14 0.01-2.075-0.923-2.071-2.068m4.909-6e-3c2e-3 -1.579-1.295-2.874-2.86-2.858-1.548 0.015-2.827 1.291-2.839 2.831-0.012 1.571 1.267 2.869 2.842 2.886 1.571 0.016 2.855-1.269 2.857-2.859" fill="#fff"/></g></g></svg>
