<?xml version="1.0" encoding="UTF-8"?>
<svg width="33.416" height="31.835" version="1.1" viewBox="0 0 33.416 31.835" xml:space="preserve" xmlns="http://www.w3.org/2000/svg"><g transform="matrix(1.3333 0 0 -1.3333 -126.13 55.018)"><g transform="translate(99.923 35.313)"><path d="m0 0c3.26-1.595 5.269-1.569 7.521 0.046-1.12 0.413-2.208 0.833-3.313 1.206-0.249 0.085-0.578 0.077-0.829-9e-3 -1.102-0.378-2.19-0.801-3.379-1.243m3.306-7.69c0 1.728 9e-3 3.316-0.014 4.904-3e-3 0.178-0.156 0.453-0.307 0.512-1.29 0.505-2.596 0.971-4.032 1.498 0-1.743-0.011-3.329 0.014-4.914 3e-3 -0.174 0.172-0.438 0.327-0.5 1.292-0.508 2.598-0.977 4.012-1.5m3.244-9.082c0.072 0.171 0.118 0.23 0.118 0.29 0.011 4.105 0.024 8.209 8e-3 12.314-1e-3 0.232-0.192 0.582-0.388 0.673-0.605 0.28-1.256 0.461-1.989 0.715 0-1.865-4e-3 -3.588 1e-3 -5.312 2e-3 -0.706-0.267-0.95-0.973-0.679-1.457 0.559-2.917 1.118-4.399 1.604-0.735 0.242-1.034 0.614-1.006 1.404 0.055 1.562 0.05 3.129-0.013 4.69-0.013 0.315-0.326 0.726-0.616 0.897-0.456 0.269-1.01 0.371-1.614 0.574 0-4.325-7e-3 -8.524 0.021-12.724 1e-3 -0.205 0.256-0.519 0.463-0.597 3.435-1.293 6.88-2.556 10.387-3.849m12.123 3.99v13.12c-0.193-0.034-0.325-0.038-0.444-0.082-3.296-1.215-6.585-2.451-9.892-3.639-0.568-0.204-0.627-0.54-0.625-1.034 0.011-3.879 5e-3 -7.758 0.01-11.637 0-0.212 0.055-0.425 0.097-0.734 3.671 1.355 7.265 2.682 10.854 4.006m1.049 6.806c0-2.181-0.027-4.363 0.016-6.544 0.014-0.708-0.236-1.045-0.891-1.282-3.668-1.324-7.318-2.699-10.988-4.017-0.388-0.139-0.912-0.142-1.299-4e-3 -3.701 1.329-7.384 2.709-11.079 4.055-0.566 0.206-0.808 0.511-0.804 1.143 0.024 4.428 0.023 8.856 1e-3 13.284-3e-3 0.616 0.201 0.937 0.787 1.149 3.697 1.339 7.378 2.724 11.081 4.047 0.413 0.147 0.975 0.117 1.395-0.033 3.642-1.303 7.261-2.666 10.9-3.976 0.651-0.235 0.912-0.565 0.897-1.278-0.044-2.18-0.016-4.362-0.016-6.544" fill="#fff"/></g><g transform="translate(112.04 21.163)"><path d="m0 0c-0.147 0.105-0.441 0.215-0.454 0.351-0.019 0.199 0.112 0.548 0.267 0.609 1.688 0.664 3.39 1.296 5.103 1.895 0.156 0.054 0.471-0.144 0.601-0.311 0.059-0.075-0.11-0.48-0.254-0.537-1.718-0.68-3.451-1.322-5.263-2.007" fill="#fff"/></g><g transform="translate(117.67 27.54)"><path d="m0 0c-0.218-0.162-0.415-0.382-0.66-0.477-1.181-0.457-2.369-0.903-3.574-1.294-0.225-0.073-0.54 0.129-0.813 0.204 0.168 0.238 0.286 0.6 0.513 0.693 1.203 0.491 2.426 0.936 3.661 1.34 0.242 0.079 0.566-0.094 0.852-0.151l0.021-0.315" fill="#fff"/></g><g transform="translate(112.79 23.455)"><path d="m0 0c-0.034 0.113-0.162 0.337-0.15 0.554 0.01 0.193 0.131 0.49 0.278 0.548 1.328 0.52 2.666 1.013 4.017 1.467 0.167 0.056 0.454-0.134 0.63-0.278 0.049-0.04-0.057-0.433-0.168-0.479-1.406-0.576-2.826-1.119-4.607-1.812" fill="#fff"/></g><g transform="translate(110.39 20.387)"><path d="m0 0c-0.244 0.308-0.528 0.533-0.489 0.648 0.075 0.22 0.308 0.468 0.525 0.529 0.145 0.04 0.374-0.223 0.566-0.351-0.168-0.23-0.336-0.461-0.602-0.826" fill="#fff"/></g></g></svg>
