<?xml version="1.0" encoding="UTF-8"?>
<svg width="30.777" height="19.637" version="1.1" viewBox="0 0 30.777 19.637" xml:space="preserve" xmlns="http://www.w3.org/2000/svg"><g transform="matrix(1.3333 0 0 -1.3333 -45.525 48.685)"><g transform="translate(40.206 26.929)"><path d="m0 0c1.449 0 2.898 1e-3 4.347 0 0.478 0 0.708-0.231 0.708-0.706 0-1.094 0-2.188 1e-3 -3.282 0-0.279 0.137-0.483 0.395-0.502 0.144-0.011 0.311 0.058 0.441 0.136 0.949 0.564 1.891 1.141 2.837 1.711 1.208 0.729 2.418 1.454 3.627 2.182 1.245 0.749 2.488 1.501 3.734 2.248 0.174 0.104 0.298 0.229 0.296 0.446-1e-3 0.219-0.13 0.341-0.303 0.442-0.331 0.194-0.659 0.393-0.988 0.591-1.097 0.662-2.194 1.325-3.291 1.986-1.052 0.635-2.104 1.268-3.156 1.902-0.94 0.567-1.878 1.138-2.821 1.701-0.417 0.249-0.771 0.036-0.771-0.452-1e-3 -1.089 0-2.177-1e-3 -3.265-1e-3 -0.443-0.236-0.678-0.68-0.679-0.875-1e-3 -1.75-1e-3 -2.625-1e-3 -2.012 0-4.023-9e-3 -6.035 5e-3 -0.674 6e-3 -1.17-0.509-1.146-1.139 0.029-0.738 5e-3 -1.478 6e-3 -2.218 1e-3 -0.671 0.438-1.106 1.113-1.106h4.312m4.426 5.071v0.239c0 1.046-2e-3 2.093 1e-3 3.14 2e-3 0.649 0.404 1.103 1.042 1.134 0.2 0.01 0.432-0.047 0.605-0.149 1.499-0.888 2.987-1.793 4.479-2.692 1.315-0.793 2.631-1.584 3.946-2.375 0.658-0.396 1.317-0.79 1.974-1.188 0.741-0.448 0.726-1.469-0.018-1.913-1.459-0.873-2.913-1.756-4.37-2.633-1.497-0.903-2.995-1.803-4.493-2.705-0.491-0.295-0.983-0.589-1.471-0.888-0.364-0.224-0.74-0.245-1.112-0.051-0.397 0.207-0.582 0.559-0.583 1.003-3e-3 1.082-1e-3 2.165-1e-3 3.247 0 0.035-4e-3 0.07-8e-3 0.134h-0.224c-2.785 0-5.57 2e-3 -8.356-2e-3 -0.433 0-0.849 0.047-1.209 0.316-0.444 0.333-0.678 0.783-0.684 1.336-0.01 0.816-5e-3 1.632-2e-3 2.448 3e-3 0.861 0.752 1.604 1.618 1.604 2.383 0 4.767-3e-3 7.15-5e-3h1.716" fill="#fff"/></g><g transform="translate(40.206 26.929)"><path d="m0 0h-4.312c-0.675 0-1.112 0.435-1.113 1.106-1e-3 0.739 0.023 1.479-6e-3 2.218-0.024 0.63 0.472 1.144 1.146 1.139 2.012-0.015 4.023-5e-3 6.035-5e-3 0.875 0 1.75 0 2.625 1e-3 0.444 1e-3 0.679 0.235 0.68 0.678 1e-3 1.089 0 2.177 1e-3 3.266 0 0.488 0.354 0.7 0.771 0.451 0.943-0.562 1.881-1.134 2.821-1.701 1.052-0.634 2.104-1.267 3.156-1.901l3.291-1.986c0.329-0.199 0.657-0.397 0.988-0.591 0.173-0.101 0.302-0.224 0.303-0.442 2e-3 -0.218-0.122-0.342-0.296-0.446-1.246-0.748-2.489-1.499-3.734-2.248-1.209-0.728-2.419-1.454-3.627-2.183-0.946-0.569-1.888-1.147-2.837-1.711-0.13-0.078-0.297-0.147-0.441-0.136-0.258 0.019-0.395 0.224-0.395 0.502-1e-3 1.094-1e-3 2.189-1e-3 3.283 0 0.475-0.23 0.705-0.708 0.706h-4.347" fill="#fff"/></g></g></svg>
