<?xml version="1.0" encoding="UTF-8"?>
<svg width="33.935" height="24.834" version="1.1" viewBox="0 0 33.935 24.834" xml:space="preserve" xmlns="http://www.w3.org/2000/svg"><g transform="matrix(1.3333 0 0 -1.3333 16.962 23.607)"><path d="m0 0c3.565 0 7.131-1e-3 10.696 1e-3 0.749 1e-3 1.114 0.365 1.114 1.111 3e-3 4.86 3e-3 9.721 1e-3 14.581 0 0.712-0.377 1.093-1.08 1.093-7.13 2e-3 -14.261 1e-3 -21.392-1e-3 -0.783 0-1.143-0.357-1.143-1.137-3e-3 -4.842-3e-3 -9.685-1e-3 -14.527 0-0.754 0.377-1.121 1.136-1.121h10.669m9e-3 -0.907c-3.537 0-7.075 0.021-10.613-0.013-1.129-0.011-2.123 0.968-2.118 2.119 0.024 4.815 0.01 9.63 0.01 14.445 1e-3 1.145 0.892 2.049 2.031 2.049 7.102 2e-3 14.205-0.01 21.307 0.013 1.129 3e-3 2.111-0.991 2.104-2.132-0.029-4.805-0.012-9.612-0.012-14.418 0-1.178-0.885-2.063-2.068-2.063-3.547-1e-3 -7.094 0-10.641 0" fill="#fff"/></g><g transform="matrix(1.3333 0 0 -1.3333 13.056 9.2411)"><path d="m0 0c-0.017 0.584-0.151 1.161-0.521 1.667-0.826 1.13-2.467 1.139-3.302 0.016-0.683-0.919-0.709-2.41-0.058-3.354 0.859-1.246 2.62-1.22 3.441 0.05 0.312 0.484 0.43 1.022 0.44 1.621m-2.178-7.36c1.356 0 2.711-1e-3 4.067 0 0.452 0 0.581 0.131 0.587 0.586 2e-3 0.186-0.016 0.374 3e-3 0.558 0.032 0.329-0.11 0.519-0.402 0.664-1.158 0.573-2.304 1.17-3.457 1.75-0.83 0.417-0.63 0.439-1.507 5e-3 -1.181-0.585-2.358-1.18-3.543-1.757-0.293-0.142-0.438-0.331-0.403-0.662 0.02-0.184 3e-3 -0.372 5e-3 -0.558 7e-3 -0.461 0.129-0.585 0.584-0.585 1.355-1e-3 2.711-1e-3 4.066-1e-3m-1.377 4.248c-0.812 0.531-1.319 1.234-1.57 2.121-0.411 1.449 0.175 3.08 1.406 3.919 1.273 0.868 2.865 0.566 3.856-0.732 1.263-1.654 0.929-3.953-0.751-5.181-0.041-0.029-0.08-0.06-0.147-0.112 0.401-0.204 0.777-0.397 1.154-0.589 0.718-0.365 1.436-0.73 2.154-1.096 0.529-0.269 0.804-0.706 0.834-1.294 0.015-0.265 0.013-0.532-1e-3 -0.797-0.039-0.775-0.688-1.392-1.466-1.392-2.713-3e-3 -5.426-3e-3 -8.139-1e-3 -0.869 0-1.504 0.638-1.511 1.51-2e-3 0.213-3e-3 0.425 2e-3 0.638 0.013 0.615 0.294 1.065 0.843 1.341 1.013 0.507 2.028 1.01 3.043 1.515 0.086 0.043 0.171 0.088 0.293 0.15" fill="#fff"/></g><g transform="matrix(1.3333 0 0 -1.3333 -22.613 56.421)" fill="#fff"><path d="m39.878 38.03h-8.135v0.874h8.135z"/><path d="m31.74 36.171h8.146v-0.865h-8.146z"/><path d="m39.886 32.574h-8.139v0.882h8.139z"/><path d="m39.89 29.855h-8.145v0.881h8.145z"/><path d="m39.888 27.139h-8.141v0.873h8.141z"/></g></svg>
